 <svg display="none" xmlns="http://www.w3.org/2000/svg">
    <symbol id="css" viewBox="0 0 800 1024">
        <g>
            <path d="M76.795 870.705L4.924 64h790.152l-71.871 806.27L399.347 960zm570.618-641.836H151.716l8.93 98.878H396.16L169.815 429.021l8.907 98.66 342.806.218-11.543 128.498-110.203 29.554-110.42-29.554-6.97-79.06h-99.314l13.939 155.287L400 788.684l202.112-56.06 27.224-303.603H411.922l226.343-101.274z"></path>
        </g>
    </symbol>
      
    <symbol id="html"  viewBox="0 0 30 30">
        <g>
            <path d="M2.072,0l2.399,26.963L15.234,30l10.837-3.037L28.472,0H2.072z M23.259,8.795H10.622l0.281,3.393h12.074L22.04,22.389    l-6.73,1.855v0.02h-0.075l-6.787-1.875l-0.413-5.213h3.281l0.244,2.625l3.675,0.994l3.692-0.994l0.414-4.275H7.866L6.984,5.514    H23.56L23.259,8.795z"></path>
        </g>
    </symbol>

    <symbol id="js"  viewBox="0 0 14 14">
        <g>
            <path d="M 11.714286,1 2.285714,1 C 1.575893,1 1,1.57589 1,2.28571 l 0,9.42858 C 1,12.42411 1.575893,13 2.285714,13 l 9.428572,0 C 12.424107,13 13,12.42411 13,11.71429 L 13,2.28571 C 13,1.57589 12.424107,1 11.714286,1 Z m -4.183929,9.35893 c 0,1.16786 -0.685714,1.70089 -1.684821,1.70089 -0.902679,0 -1.425,-0.46607 -1.692857,-1.03125 l 0.91875,-0.55446 c 0.176785,0.31339 0.3375,0.57857 0.725892,0.57857 0.369643,0 0.605358,-0.14464 0.605358,-0.70982 l 0,-3.83304 1.127678,0 0,3.84911 z m 2.667857,1.70089 c -1.047321,0 -1.725,-0.49821 -2.054464,-1.15178 L 9.0625,10.37768 c 0.241071,0.39375 0.557143,0.68571 1.111607,0.68571 0.466072,0 0.766072,-0.23303 0.766072,-0.55714 0,-0.38571 -0.305358,-0.52232 -0.822322,-0.75 L 9.836607,9.63571 C 9.022321,9.29018 8.483929,8.85357 8.483929,7.93482 c 0,-0.84643 0.645535,-1.48928 1.65,-1.48928 0.717857,0 1.232142,0.2491 1.601785,0.90267 l -0.878571,0.5625 C 10.664286,7.56518 10.455357,7.42857 10.13125,7.42857 c -0.329464,0 -0.538393,0.20893 -0.538393,0.48214 0,0.3375 0.208929,0.47411 0.69375,0.68572 l 0.28125,0.12053 c 0.958929,0.40983 1.497322,0.83036 1.497322,1.77322 0,1.0125 -0.798215,1.56964 -1.866965,1.56964 z"></path>
        </g>
    </symbol>

    
    <symbol id="git"  viewBox="0 0 32 32">
        <g>
            <path d="M31.396 14.573l-13.974-13.969c-0.802-0.807-2.109-0.807-2.917 0l-2.896 2.901 3.682 3.677c0.859-0.286 1.839-0.094 2.516 0.589 0.688 0.688 0.88 1.677 0.589 2.531l3.542 3.547c0.859-0.297 1.849-0.104 2.531 0.583 0.964 0.958 0.964 2.51 0 3.469-0.958 0.958-2.505 0.958-3.464 0-0.719-0.719-0.901-1.781-0.542-2.661l-3.318-3.302v8.703c0.234 0.115 0.458 0.271 0.651 0.464 0.953 0.964 0.953 2.51 0 3.469-0.958 0.958-2.516 0.958-3.479 0-0.958-0.958-0.958-2.505 0-3.469 0.245-0.24 0.516-0.417 0.807-0.536v-8.786c-0.286-0.125-0.563-0.297-0.802-0.536-0.724-0.724-0.901-1.786-0.526-2.677l-3.615-3.635-9.583 9.578c-0.797 0.802-0.797 2.109 0 2.917l13.974 13.969c0.807 0.807 2.109 0.807 2.917 0l13.906-13.906c0.807-0.802 0.807-2.109 0-2.917z"></path>
        </g>
    </symbol>


    <symbol id="vs"  viewBox="0 0 32 32">
        <g>
             <path d="M23.438 0.094c-0.505-0.005-1 0.177-1.375 0.521-0.021 0.021-0.047 0.042-0.068 0.063l-10.62 11.745-6.203-5.083-0.542-0.469c-0.38-0.313-0.906-0.396-1.365-0.203-0.005 0-0.010 0.005-0.016 0.005l-2.422 1c-0.031 0.016-0.068 0.031-0.099 0.047-0.026 0.016-0.047 0.026-0.068 0.036-0.016 0.010-0.031 0.021-0.047 0.031-0.021 0.016-0.047 0.031-0.068 0.047-0.010 0.010-0.026 0.021-0.036 0.031-0.021 0.016-0.042 0.031-0.057 0.047-0.021 0.016-0.036 0.031-0.052 0.047-0.010 0.010-0.026 0.026-0.042 0.047-0.016 0.016-0.031 0.031-0.042 0.047-0.016 0.021-0.031 0.042-0.047 0.063-0.010 0.010-0.021 0.026-0.031 0.042-0.016 0.021-0.031 0.047-0.047 0.068-0.005 0.016-0.016 0.031-0.026 0.047-0.010 0.021-0.021 0.042-0.031 0.068-0.010 0.021-0.016 0.036-0.026 0.057-0.005 0.021-0.016 0.042-0.021 0.063-0.010 0.021-0.016 0.042-0.021 0.063-0.010 0.021-0.016 0.047-0.021 0.073-0.005 0.016-0.010 0.031-0.016 0.052 0 0.021-0.005 0.047-0.010 0.073 0 0.021-0.005 0.042-0.005 0.068-0.005 0.036-0.005 0.073-0.005 0.109v14.208c0 0.536 0.323 1.021 0.818 1.224l2.422 1.021c0.464 0.193 1 0.104 1.38-0.219l0.542-0.469 6.203-5.083 10.62 11.745c0.031 0.031 0.068 0.063 0.099 0.089 0.026 0.021 0.052 0.047 0.078 0.068 0.021 0.021 0.047 0.036 0.073 0.057 0.031 0.021 0.057 0.036 0.083 0.057 0.031 0.016 0.063 0.036 0.089 0.052 0.031 0.016 0.057 0.031 0.089 0.047s0.057 0.026 0.089 0.042c0.031 0.016 0.063 0.026 0.094 0.036 0.031 0.016 0.068 0.026 0.099 0.036 0.026 0.010 0.057 0.016 0.089 0.026s0.068 0.021 0.104 0.026c0.031 0.005 0.063 0.016 0.094 0.021s0.063 0.010 0.099 0.010c0.031 0.005 0.068 0.010 0.099 0.010s0.063 0.005 0.099 0.005c0.031 0 0.068 0 0.099 0 0.036 0 0.073-0.005 0.104-0.005 0.031-0.005 0.063-0.010 0.089-0.010 0.042-0.005 0.078-0.010 0.12-0.021 0.026-0.005 0.052-0.010 0.078-0.016 0.036-0.010 0.073-0.016 0.109-0.031 0.026-0.005 0.057-0.016 0.089-0.026s0.063-0.021 0.094-0.036c0.042-0.016 0.078-0.031 0.12-0.047l6.589-3.172c0.24-0.115 0.458-0.276 0.63-0.479 0.047-0.047 0.083-0.099 0.125-0.151 0 0 0-0.005 0.005-0.010 0.036-0.052 0.073-0.109 0.104-0.167 0.031-0.052 0.057-0.104 0.083-0.156 0.005-0.010 0.005-0.016 0.010-0.026 0.021-0.047 0.042-0.094 0.057-0.141 0.005-0.016 0.010-0.031 0.016-0.052 0.016-0.047 0.031-0.094 0.042-0.141 0.005-0.016 0.010-0.031 0.010-0.047 0.010-0.047 0.016-0.094 0.026-0.135 0-0.021 0.005-0.047 0.010-0.068 0-0.042 0.005-0.078 0.005-0.12 0.005-0.036 0.005-0.073 0.005-0.104v-21.484c0-0.016 0-0.031 0-0.047 0-0.063-0.005-0.13-0.010-0.198-0.083-0.677-0.505-1.266-1.12-1.557l-6.589-3.167c-0.26-0.125-0.542-0.193-0.828-0.198zM23.995 9.229v13.542l-8.26-6.771zM4.005 11.432l4.13 4.568-4.13 4.568z"></path>
        </g>
    </symbol>

    <symbol id="globe" viewBox="0 0 512 512">
        <g>
            <path d="M452.56,255.21c0-108.38-88.18-196.56-196.56-196.56S59.44,146.83,59.44,255.21c0,103.74,80.79,189,182.76,196.07a11.13,11.13,0,0,0,3.25.49,12.19,12.19,0,0,0,2-.19c2.84.12,5.69.19,8.56.19,2.71,0,5.41-.07,8.09-.18a11.11,11.11,0,0,0,1.9.18,11.7,11.7,0,0,0,3.12-.44C371.4,444.56,452.56,359.19,452.56,255.21ZM256,429.1c-1.35,0-2.69,0-4-.06a338.6,338.6,0,0,1-35.59-89.17,201.47,201.47,0,0,1,78.71-.11,339.46,339.46,0,0,1-35.62,89.29C258.31,429.07,257.16,429.1,256,429.1Zm0-115.94h0a222.75,222.75,0,0,0-44.22,4.5,340.22,340.22,0,0,1-4.88-51.11h97.64a340.05,340.05,0,0,1-4.86,51A222.56,222.56,0,0,0,256,313.16ZM116.56,151.44a266.09,266.09,0,0,0,74.82,36.24,362.39,362.39,0,0,0-6.88,56.19H82.5A173,173,0,0,1,116.56,151.44ZM255.72,84c.17.35.35.7.56,1.05a338.67,338.67,0,0,1,36.57,86.05,201.21,201.21,0,0,1-74.24-.1A339.19,339.19,0,0,1,255.16,85C255.37,84.69,255.55,84.34,255.72,84ZM256,197.26a222,222,0,0,0,42-4,339.62,339.62,0,0,1,6.2,50.66h-97a341.11,341.11,0,0,1,6.22-50.77A222.08,222.08,0,0,0,256,197.26Zm173.5,46.61H326.94a362.87,362.87,0,0,0-6.85-56,266,266,0,0,0,75.35-36.39A172.88,172.88,0,0,1,429.5,243.87ZM184.22,266.55a362.56,362.56,0,0,0,5.52,56.69A267.06,267.06,0,0,0,116.56,359,172.93,172.93,0,0,1,82.5,266.55Zm143,0H429.5A172.85,172.85,0,0,1,395.44,359a266.63,266.63,0,0,0-73.71-35.91A362.79,362.79,0,0,0,327.22,266.55ZM380.64,134.1a240.86,240.86,0,0,1-65.74,31.66,361.63,361.63,0,0,0-33.5-82.57A173.6,173.6,0,0,1,380.64,134.1ZM230,83.28a361.94,361.94,0,0,0-33.41,82.32,241.05,241.05,0,0,1-65.22-31.5A173.59,173.59,0,0,1,230,83.28Zm-98.63,293a242.41,242.41,0,0,1,63-30.82,361.62,361.62,0,0,0,30.22,80.75A173.7,173.7,0,0,1,131.36,376.32Zm155.39,50.05a362.15,362.15,0,0,0,30.32-81,241.76,241.76,0,0,1,63.57,31A173.61,173.61,0,0,1,286.75,426.37Z"></path>      
        </g>
    </symbol>

    <symbol id="logo-photo" viewBox="0 0 50 50">
        <g>
            <path d="M20.4506 5.25918C19.0919 5.69691 17.9456 6.47652 17.6601 7.15634L17.5398 7.4419L15.6561 7.43301L15.4116 6.93006C15.2253 6.54668 15.063 6.3708 14.7263 6.18701L14.2864 5.94591H11.1062C6.93498 5.94591 6.40895 6.15341 6.40895 7.80355V8.26796L5.69955 8.61478C3.08441 9.8924 1.03538 12.416 0.225789 15.3546L0.000346207 16.1748V26.2584C0.000346207 37.2698 -0.0327188 36.5584 0.547422 38.1166C1.84798 41.6086 4.86291 44.1352 8.54916 44.8258C9.78859 45.0581 40.2114 45.0581 41.4508 44.8258C45.1371 44.1362 48.152 41.6096 49.4526 38.1166C50.0327 36.5584 49.9997 37.2698 49.9997 26.2584V16.1748L49.7832 15.4031C48.649 11.3647 45.7433 8.61182 41.6342 7.67905C41.02 7.53972 40.2134 7.50514 36.6765 7.46858L32.4532 7.42412L32.3369 7.14745C32.0504 6.46565 30.8209 5.64553 29.4663 5.23349C28.3992 4.9084 21.4756 4.92816 20.4506 5.25918ZM40.0601 10.8222C43.053 11.1256 45.3856 12.9526 46.3976 15.7874L46.6731 16.5591L46.7012 25.871C46.7332 36.5189 46.7653 36.0218 45.9236 37.7342C44.9758 39.662 43.064 41.1205 40.9288 41.5453C39.7856 41.7726 10.2114 41.7726 9.07118 41.5453C6.91594 41.1145 5.0112 39.6284 4.00923 37.5949C3.24473 36.0426 3.26677 36.4072 3.29883 25.871L3.32689 16.5591L3.63149 15.7163C4.60841 13.0168 6.9961 11.1167 9.77356 10.8291C10.9589 10.7066 38.8517 10.6997 40.0601 10.8212V10.8222ZM9.51706 11.8884C6.37889 12.3419 4.35391 14.8942 4.35391 18.398V19.6954H11.0661L11.2915 19.2369C12.2845 17.2123 14.2844 15.0167 16.4357 13.5869C17.2402 13.0524 19.3614 11.9763 19.6109 11.9763C19.669 11.9763 19.7161 11.9328 19.7161 11.8795C19.7161 11.7609 10.3457 11.7678 9.51706 11.8874V11.8884ZM30.2839 11.8548C30.2839 11.9002 30.4492 11.9951 30.6506 12.0652C33.7206 13.1294 37.462 16.4702 38.7385 19.2863L38.9249 19.6964H45.6471V18.399C45.6471 15.1284 44.1341 12.9842 41.1462 12.0168C40.5581 11.8261 30.2849 11.674 30.2849 11.8558L30.2839 11.8548ZM24.0707 12.5178C12.6663 13.6156 7.13237 25.9748 14.0931 34.7976C21.7892 44.5512 37.8768 39.7015 38.8858 27.3236C39.5611 19.0343 32.2528 11.7313 24.0707 12.5178ZM26.6638 15.9455C33.2327 16.8753 37.3277 23.963 34.8278 30.0774C31.9482 37.1216 22.708 38.9279 17.4136 33.4804C10.3908 26.2544 16.5819 14.5187 26.6638 15.9455ZM23.8723 17.5719C17.9617 18.395 14.553 24.3474 16.8885 29.7701C19.5698 35.9942 28.5605 36.7659 32.376 31.1001C36.5512 24.9007 31.2949 16.5394 23.8723 17.5719ZM27.7168 18.9098C28.8581 19.2596 29.7118 20.0768 29.7318 20.8366C29.7779 22.5886 26.2289 22.5332 25.0416 20.7635C24.1388 19.4187 25.747 18.3051 27.7168 18.9098ZM22.701 32.2552C23.7821 32.4805 25.3923 33.4557 25.3923 33.8846C25.3923 34.8865 21.7581 34.2393 20.697 33.0486C19.9636 32.2246 20.8564 31.8708 22.701 32.2552ZM41.9128 35.9991C39.8938 36.6167 40.2846 39.3863 42.3897 39.3794C44.5309 39.3725 44.6902 36.2629 42.564 35.9734C42.3486 35.9438 42.056 35.9556 41.9128 36.0001V35.9991Z" ></path>        
        </g>
    </symbol>    
  

 


  </svg>

    
   
 
   


   
